<svg xmlns="http://www.w3.org/2000/svg" xmlns:xlink="http://www.w3.org/1999/xlink" width="250" zoomAndPan="magnify" viewBox="0 0 187.5 187.499992" height="250" preserveAspectRatio="xMidYMid meet" version="1.0"><defs><clipPath id="b81514ea35"><path d="M 8.195312 32.1875 L 178.742188 32.1875 L 178.742188 154.859375 L 8.195312 154.859375 Z M 8.195312 32.1875 " clip-rule="nonzero"/></clipPath></defs><g clip-path="url(#b81514ea35)"><path fill="#fff" d="M 172.597656 32.195312 L 117.421875 32.195312 C 117.019531 32.195312 116.617188 32.234375 116.222656 32.316406 C 115.828125 32.394531 115.441406 32.511719 115.070312 32.667969 C 114.695312 32.820312 114.34375 33.011719 114.007812 33.234375 C 113.671875 33.460938 113.359375 33.714844 113.074219 34 C 112.789062 34.285156 112.535156 34.597656 112.3125 34.933594 C 112.085938 35.269531 111.898438 35.621094 111.742188 35.996094 C 111.585938 36.367188 111.472656 36.753906 111.390625 37.148438 C 111.3125 37.546875 111.273438 37.945312 111.273438 38.347656 L 111.273438 55.320312 L 14.347656 55.320312 C 13.945312 55.320312 13.546875 55.359375 13.148438 55.4375 C 12.753906 55.515625 12.371094 55.632812 11.996094 55.789062 C 11.625 55.945312 11.269531 56.132812 10.933594 56.359375 C 10.597656 56.582031 10.289062 56.835938 10.003906 57.125 C 9.71875 57.410156 9.460938 57.71875 9.238281 58.054688 C 9.015625 58.390625 8.824219 58.746094 8.667969 59.117188 C 8.515625 59.492188 8.398438 59.875 8.320312 60.273438 C 8.238281 60.667969 8.199219 61.070312 8.199219 61.472656 L 8.199219 129.21875 C 8.199219 129.621094 8.238281 130.023438 8.320312 130.417969 C 8.398438 130.8125 8.515625 131.199219 8.667969 131.570312 C 8.824219 131.945312 9.015625 132.300781 9.238281 132.636719 C 9.460938 132.972656 9.71875 133.28125 10.003906 133.566406 C 10.289062 133.851562 10.597656 134.109375 10.933594 134.332031 C 11.269531 134.558594 11.625 134.746094 11.996094 134.902344 C 12.371094 135.054688 12.753906 135.171875 13.148438 135.253906 C 13.546875 135.332031 13.945312 135.371094 14.347656 135.371094 L 52.808594 135.371094 L 52.808594 145.628906 L 43.578125 145.628906 C 43.171875 145.628906 42.777344 145.707031 42.402344 145.863281 C 42.027344 146.019531 41.695312 146.242188 41.40625 146.53125 C 41.117188 146.816406 40.898438 147.148438 40.742188 147.527344 C 40.585938 147.902344 40.507812 148.296875 40.507812 148.703125 L 40.507812 154.851562 L 96.648438 154.851562 L 96.648438 148.699219 C 96.648438 148.292969 96.570312 147.898438 96.414062 147.523438 C 96.257812 147.148438 96.035156 146.816406 95.746094 146.527344 C 95.460938 146.238281 95.128906 146.015625 94.75 145.859375 C 94.375 145.703125 93.984375 145.625 93.578125 145.625 L 84.339844 145.625 L 84.339844 135.371094 L 111.273438 135.371094 L 111.273438 148.703125 C 111.273438 149.105469 111.3125 149.507812 111.390625 149.902344 C 111.472656 150.296875 111.585938 150.683594 111.742188 151.054688 C 111.898438 151.429688 112.085938 151.785156 112.3125 152.121094 C 112.535156 152.457031 112.789062 152.765625 113.074219 153.050781 C 113.359375 153.335938 113.671875 153.59375 114.007812 153.816406 C 114.34375 154.042969 114.695312 154.230469 115.070312 154.386719 C 115.441406 154.539062 115.828125 154.65625 116.222656 154.738281 C 116.617188 154.816406 117.019531 154.855469 117.421875 154.855469 L 172.597656 154.855469 C 173 154.855469 173.398438 154.816406 173.796875 154.738281 C 174.191406 154.65625 174.574219 154.539062 174.949219 154.386719 C 175.320312 154.230469 175.675781 154.042969 176.011719 153.816406 C 176.347656 153.59375 176.65625 153.335938 176.941406 153.050781 C 177.226562 152.765625 177.484375 152.457031 177.707031 152.121094 C 177.929688 151.785156 178.121094 151.429688 178.273438 151.054688 C 178.429688 150.683594 178.546875 150.296875 178.625 149.902344 C 178.703125 149.507812 178.746094 149.105469 178.746094 148.703125 L 178.746094 38.347656 C 178.746094 37.941406 178.703125 37.542969 178.625 37.148438 C 178.546875 36.75 178.429688 36.367188 178.273438 35.992188 C 178.121094 35.621094 177.929688 35.265625 177.707031 34.929688 C 177.480469 34.59375 177.226562 34.285156 176.941406 34 C 176.65625 33.714844 176.34375 33.457031 176.011719 33.234375 C 175.675781 33.011719 175.320312 32.820312 174.949219 32.664062 C 174.574219 32.511719 174.191406 32.394531 173.796875 32.316406 C 173.398438 32.234375 173 32.195312 172.597656 32.195312 Z M 11.265625 61.472656 C 11.269531 61.0625 11.347656 60.671875 11.503906 60.292969 C 11.660156 59.914062 11.882812 59.582031 12.171875 59.292969 C 12.460938 59.003906 12.792969 58.78125 13.171875 58.625 C 13.546875 58.46875 13.941406 58.390625 14.347656 58.390625 L 122.804688 58.390625 C 123.214844 58.390625 123.609375 58.46875 123.984375 58.625 C 124.363281 58.78125 124.695312 59.003906 124.984375 59.292969 C 125.273438 59.582031 125.496094 59.914062 125.652344 60.292969 C 125.808594 60.671875 125.886719 61.0625 125.886719 61.472656 L 125.886719 119.070312 L 11.265625 119.070312 Z M 122.804688 55.320312 L 122.585938 55.320312 L 122.585938 50.519531 L 167.429688 50.523438 L 167.425781 62.085938 L 128.953125 62.085938 L 128.953125 61.472656 C 128.953125 61.070312 128.914062 60.667969 128.835938 60.273438 C 128.757812 59.875 128.640625 59.492188 128.484375 59.117188 C 128.332031 58.746094 128.140625 58.390625 127.917969 58.054688 C 127.691406 57.71875 127.4375 57.410156 127.152344 57.125 C 126.867188 56.835938 126.554688 56.582031 126.21875 56.359375 C 125.886719 56.132812 125.53125 55.945312 125.15625 55.789062 C 124.785156 55.632812 124.402344 55.515625 124.003906 55.4375 C 123.609375 55.359375 123.210938 55.320312 122.804688 55.320312 Z M 93.574219 148.695312 L 93.582031 148.703125 L 93.582031 151.785156 L 43.574219 151.785156 L 43.574219 148.695312 Z M 81.273438 145.625 L 55.878906 145.625 L 55.878906 135.371094 L 81.273438 135.371094 Z M 84.339844 132.300781 L 14.347656 132.300781 C 13.941406 132.300781 13.546875 132.222656 13.167969 132.066406 C 12.792969 131.910156 12.460938 131.6875 12.171875 131.398438 C 11.882812 131.109375 11.660156 130.773438 11.503906 130.398438 C 11.347656 130.019531 11.269531 129.625 11.265625 129.21875 L 11.265625 122.136719 L 125.886719 122.136719 L 125.886719 129.21875 C 125.886719 129.625 125.808594 130.019531 125.652344 130.398438 C 125.496094 130.773438 125.273438 131.109375 124.984375 131.398438 C 124.695312 131.6875 124.363281 131.910156 123.984375 132.066406 C 123.609375 132.222656 123.214844 132.300781 122.804688 132.300781 Z M 175.675781 148.703125 C 175.675781 149.109375 175.597656 149.503906 175.441406 149.882812 C 175.285156 150.257812 175.0625 150.59375 174.773438 150.882812 C 174.484375 151.171875 174.152344 151.394531 173.773438 151.550781 C 173.398438 151.707031 173.003906 151.785156 172.597656 151.785156 L 117.421875 151.785156 C 117.011719 151.785156 116.621094 151.707031 116.242188 151.550781 C 115.867188 151.394531 115.53125 151.171875 115.242188 150.882812 C 114.953125 150.59375 114.730469 150.257812 114.574219 149.882812 C 114.417969 149.503906 114.339844 149.109375 114.339844 148.703125 L 114.339844 135.371094 L 122.804688 135.371094 C 123.539062 135.371094 124.25 135.242188 124.941406 134.988281 C 125.628906 134.730469 126.25 134.363281 126.808594 133.886719 C 127.367188 133.40625 127.824219 132.847656 128.179688 132.207031 C 128.535156 131.5625 128.773438 130.878906 128.882812 130.152344 C 128.929688 129.84375 128.957031 129.53125 128.957031 129.21875 L 128.957031 89.136719 L 175.679688 89.136719 Z M 128.953125 86.066406 L 128.953125 65.15625 L 167.425781 65.15625 C 167.835938 65.15625 168.226562 65.078125 168.601562 64.921875 C 168.980469 64.765625 169.3125 64.542969 169.597656 64.253906 C 169.886719 63.964844 170.109375 63.632812 170.265625 63.257812 C 170.421875 62.878906 170.5 62.488281 170.5 62.082031 L 170.5 50.523438 C 170.5 50.117188 170.421875 49.726562 170.265625 49.347656 C 170.109375 48.972656 169.886719 48.640625 169.597656 48.351562 C 169.3125 48.0625 168.980469 47.84375 168.601562 47.6875 C 168.226562 47.53125 167.835938 47.453125 167.425781 47.449219 L 122.589844 47.449219 C 122.183594 47.453125 121.792969 47.53125 121.414062 47.6875 C 121.039062 47.84375 120.707031 48.0625 120.417969 48.351562 C 120.132812 48.640625 119.910156 48.972656 119.753906 49.347656 C 119.597656 49.726562 119.519531 50.117188 119.519531 50.523438 L 119.519531 55.320312 L 114.339844 55.320312 L 114.339844 38.347656 C 114.339844 37.9375 114.417969 37.542969 114.574219 37.167969 C 114.730469 36.789062 114.953125 36.457031 115.242188 36.167969 C 115.53125 35.878906 115.867188 35.65625 116.242188 35.5 C 116.621094 35.34375 117.011719 35.261719 117.421875 35.261719 L 172.597656 35.261719 C 173.003906 35.261719 173.398438 35.34375 173.773438 35.5 C 174.152344 35.65625 174.484375 35.878906 174.773438 36.167969 C 175.0625 36.457031 175.285156 36.789062 175.441406 37.167969 C 175.597656 37.542969 175.675781 37.9375 175.675781 38.347656 L 175.675781 86.066406 Z M 128.953125 86.066406 " fill-opacity="1" fill-rule="nonzero"/></g><path fill="#fff" d="M 145.003906 112.175781 C 145.878906 112.175781 146.734375 112.046875 147.570312 111.785156 C 148.40625 111.523438 149.179688 111.140625 149.898438 110.644531 C 150.617188 110.144531 151.246094 109.546875 151.785156 108.855469 C 152.320312 108.164062 152.742188 107.410156 153.046875 106.589844 C 153.355469 105.769531 153.53125 104.921875 153.578125 104.046875 C 153.625 103.171875 153.539062 102.3125 153.324219 101.460938 C 153.105469 100.613281 152.769531 99.816406 152.308594 99.074219 C 151.851562 98.328125 151.289062 97.667969 150.628906 97.09375 L 148.632812 99.421875 C 148.914062 99.667969 149.167969 99.9375 149.394531 100.234375 C 149.621094 100.53125 149.8125 100.847656 149.976562 101.183594 C 150.140625 101.519531 150.265625 101.867188 150.359375 102.230469 C 150.449219 102.59375 150.503906 102.960938 150.519531 103.332031 C 150.539062 103.707031 150.519531 104.078125 150.460938 104.445312 C 150.402344 104.816406 150.308594 105.171875 150.175781 105.523438 C 150.046875 105.875 149.878906 106.207031 149.683594 106.523438 C 149.484375 106.839844 149.253906 107.132812 148.996094 107.402344 C 148.738281 107.671875 148.457031 107.914062 148.148438 108.125 C 147.84375 108.335938 147.519531 108.515625 147.175781 108.664062 C 146.832031 108.808594 146.476562 108.921875 146.113281 108.996094 C 145.746094 109.070312 145.375 109.105469 145.003906 109.105469 C 144.628906 109.105469 144.261719 109.066406 143.894531 108.992188 C 143.53125 108.914062 143.175781 108.804688 142.832031 108.65625 C 142.492188 108.507812 142.167969 108.328125 141.859375 108.117188 C 141.554688 107.902344 141.273438 107.660156 141.015625 107.390625 C 140.757812 107.117188 140.53125 106.824219 140.332031 106.507812 C 140.136719 106.191406 139.972656 105.859375 139.84375 105.507812 C 139.710938 105.15625 139.617188 104.796875 139.5625 104.429688 C 139.503906 104.058594 139.484375 103.6875 139.503906 103.316406 C 139.523438 102.945312 139.578125 102.574219 139.667969 102.214844 C 139.761719 101.851562 139.890625 101.503906 140.054688 101.167969 C 140.21875 100.832031 140.414062 100.515625 140.640625 100.222656 C 140.867188 99.925781 141.121094 99.65625 141.40625 99.410156 L 139.398438 97.089844 C 138.453125 97.90625 137.722656 98.882812 137.207031 100.015625 C 136.6875 101.148438 136.429688 102.339844 136.429688 103.585938 C 136.425781 108.320312 140.273438 112.175781 145.003906 112.175781 Z M 145.003906 112.175781 " fill-opacity="1" fill-rule="nonzero"/><path fill="#fff" d="M 145.007812 102.914062 C 145.210938 102.914062 145.40625 102.875 145.597656 102.796875 C 145.785156 102.71875 145.949219 102.605469 146.09375 102.464844 C 146.238281 102.320312 146.347656 102.152344 146.425781 101.964844 C 146.503906 101.777344 146.542969 101.582031 146.542969 101.378906 L 146.542969 94.523438 C 146.542969 94.320312 146.503906 94.125 146.425781 93.9375 C 146.347656 93.75 146.238281 93.582031 146.09375 93.4375 C 145.949219 93.292969 145.785156 93.183594 145.597656 93.105469 C 145.40625 93.027344 145.210938 92.988281 145.007812 92.988281 C 144.804688 92.988281 144.609375 93.027344 144.421875 93.105469 C 144.234375 93.183594 144.070312 93.292969 143.925781 93.4375 C 143.78125 93.582031 143.671875 93.75 143.59375 93.9375 C 143.515625 94.125 143.476562 94.320312 143.476562 94.523438 L 143.476562 101.378906 C 143.476562 101.582031 143.515625 101.777344 143.59375 101.964844 C 143.671875 102.152344 143.78125 102.320312 143.925781 102.464844 C 144.070312 102.609375 144.234375 102.71875 144.421875 102.796875 C 144.609375 102.875 144.804688 102.914062 145.007812 102.914062 Z M 145.007812 102.914062 " fill-opacity="1" fill-rule="nonzero"/><path stroke-linecap="butt" transform="matrix(0.748005, 0, 0, 0.748005, 33.660241, 118.153134)" fill="none" stroke-linejoin="miter" d="M -0.000112664 1.999055 L 79.999116 1.999055 " stroke="#fff" stroke-width="4" stroke-opacity="1" stroke-miterlimit="4"/></svg>