<svg xmlns="http://www.w3.org/2000/svg" xmlns:xlink="http://www.w3.org/1999/xlink" width="250" zoomAndPan="magnify" viewBox="0 0 187.5 187.499992" height="250" preserveAspectRatio="xMidYMid meet" version="1.0"><defs><clipPath id="e9c2af3120"><path d="M 54 107 L 167.089844 107 L 167.089844 180.6875 L 54 180.6875 Z M 54 107 " clip-rule="nonzero"/></clipPath><clipPath id="f98a250450"><path d="M 21.230469 7.148438 L 148 7.148438 L 148 88 L 21.230469 88 Z M 21.230469 7.148438 " clip-rule="nonzero"/></clipPath></defs><g clip-path="url(#e9c2af3120)"><path fill="#fff" d="M 167.089844 132.632812 C 167.089844 119.289062 150.019531 111.640625 137.179688 107.042969 L 135.289062 112.324219 C 152.914062 118.628906 161.480469 125.269531 161.480469 132.632812 C 161.480469 140.554688 152.058594 147.398438 131.84375 154.167969 C 120.480469 157.945312 106.839844 161.316406 93.652344 164.574219 C 80.242188 167.890625 66.371094 171.320312 54.699219 175.226562 L 56.480469 180.550781 C 67.9375 176.726562 81.695312 173.328125 95 170.039062 C 108.304688 166.746094 122.039062 163.355469 133.621094 159.507812 C 149.203125 154.269531 167.089844 146.5 167.089844 132.632812 Z M 167.089844 132.632812 " fill-opacity="1" fill-rule="nonzero"/></g><path fill="#fff" d="M 123.644531 56.609375 L 129.199219 51.058594 L 133.164062 55.023438 L 127.609375 60.574219 Z M 123.644531 56.609375 " fill-opacity="1" fill-rule="nonzero"/><path fill="#fff" d="M 91.355469 37.714844 L 96.964844 37.714844 L 96.964844 45.5625 L 91.355469 45.5625 Z M 91.355469 37.714844 " fill-opacity="1" fill-rule="nonzero"/><path fill="#fff" d="M 70.570312 95.488281 C 70.402344 96.109375 70.363281 96.742188 70.457031 97.378906 C 70.546875 98.015625 70.761719 98.613281 71.097656 99.164062 L 74.460938 104.746094 C 74.628906 105.015625 74.816406 105.269531 75.03125 105.503906 C 75.242188 105.738281 75.476562 105.949219 75.730469 106.136719 C 75.984375 106.328125 76.253906 106.488281 76.539062 106.628906 C 76.824219 106.765625 77.121094 106.875 77.429688 106.953125 C 77.734375 107.035156 78.046875 107.085938 78.363281 107.105469 C 78.679688 107.125 78.992188 107.117188 79.308594 107.074219 C 79.621094 107.035156 79.929688 106.964844 80.230469 106.867188 C 80.53125 106.769531 80.820312 106.640625 81.097656 106.488281 L 81.976562 106 C 83.195312 106.863281 84.496094 107.589844 85.871094 108.175781 L 85.871094 108.960938 C 85.875 109.28125 85.910156 109.597656 85.972656 109.910156 C 86.039062 110.21875 86.136719 110.523438 86.261719 110.816406 C 86.386719 111.109375 86.539062 111.386719 86.71875 111.652344 C 86.898438 111.914062 87.101562 112.15625 87.332031 112.382812 C 87.558594 112.605469 87.804688 112.804688 88.070312 112.976562 C 88.339844 113.152344 88.621094 113.300781 88.917969 113.417969 C 89.210938 113.539062 89.515625 113.628906 89.832031 113.6875 C 90.144531 113.746094 90.460938 113.773438 90.777344 113.773438 L 97.523438 113.773438 C 97.84375 113.773438 98.160156 113.746094 98.472656 113.6875 C 98.789062 113.628906 99.09375 113.539062 99.386719 113.417969 C 99.683594 113.300781 99.964844 113.152344 100.230469 112.976562 C 100.5 112.804688 100.746094 112.605469 100.972656 112.382812 C 101.203125 112.15625 101.40625 111.914062 101.585938 111.652344 C 101.765625 111.386719 101.917969 111.109375 102.042969 110.816406 C 102.167969 110.523438 102.265625 110.21875 102.328125 109.910156 C 102.394531 109.597656 102.429688 109.28125 102.433594 108.960938 L 102.433594 108.175781 C 103.808594 107.589844 105.105469 106.863281 106.328125 106 L 107.210938 106.488281 C 107.488281 106.640625 107.777344 106.769531 108.078125 106.867188 C 108.378906 106.96875 108.683594 107.035156 109 107.078125 C 109.3125 107.117188 109.628906 107.125 109.945312 107.105469 C 110.261719 107.085938 110.570312 107.035156 110.878906 106.953125 C 111.183594 106.875 111.480469 106.765625 111.765625 106.628906 C 112.050781 106.492188 112.320312 106.328125 112.574219 106.136719 C 112.828125 105.949219 113.0625 105.738281 113.273438 105.503906 C 113.488281 105.269531 113.675781 105.015625 113.84375 104.746094 L 117.207031 99.164062 C 117.542969 98.613281 117.757812 98.015625 117.847656 97.378906 C 117.941406 96.742188 117.902344 96.109375 117.734375 95.488281 C 117.558594 94.855469 117.269531 94.28125 116.863281 93.761719 C 116.457031 93.246094 115.96875 92.832031 115.394531 92.511719 L 114.636719 92.097656 C 114.792969 90.726562 114.792969 89.351562 114.636719 87.980469 L 115.390625 87.566406 C 115.964844 87.25 116.457031 86.832031 116.863281 86.316406 C 117.269531 85.800781 117.558594 85.226562 117.734375 84.59375 C 117.902344 83.972656 117.941406 83.339844 117.851562 82.703125 C 117.757812 82.0625 117.542969 81.46875 117.207031 80.917969 L 113.84375 75.328125 C 113.675781 75.0625 113.484375 74.8125 113.269531 74.582031 C 113.054688 74.351562 112.820312 74.140625 112.566406 73.953125 C 112.3125 73.765625 112.042969 73.605469 111.757812 73.46875 C 111.472656 73.332031 111.179688 73.226562 110.875 73.144531 C 110.566406 73.066406 110.257812 73.015625 109.941406 72.992188 C 109.628906 72.972656 109.3125 72.980469 109 73.019531 C 108.6875 73.058594 108.378906 73.125 108.078125 73.21875 C 107.78125 73.316406 107.492188 73.441406 107.214844 73.59375 L 106.328125 74.078125 C 105.109375 73.214844 103.8125 72.492188 102.4375 71.90625 L 102.4375 71.121094 C 102.433594 70.800781 102.398438 70.484375 102.332031 70.171875 C 102.265625 69.859375 102.171875 69.558594 102.046875 69.265625 C 101.921875 68.96875 101.769531 68.691406 101.589844 68.429688 C 101.410156 68.164062 101.203125 67.921875 100.976562 67.699219 C 100.75 67.476562 100.5 67.277344 100.234375 67.101562 C 99.96875 66.925781 99.683594 66.777344 99.390625 66.660156 C 99.09375 66.539062 98.789062 66.449219 98.472656 66.390625 C 98.160156 66.332031 97.84375 66.304688 97.523438 66.304688 L 90.792969 66.304688 C 90.472656 66.304688 90.15625 66.332031 89.84375 66.390625 C 89.53125 66.453125 89.226562 66.542969 88.929688 66.660156 C 88.632812 66.78125 88.351562 66.925781 88.085938 67.101562 C 87.820312 67.277344 87.570312 67.476562 87.34375 67.699219 C 87.117188 67.921875 86.910156 68.164062 86.730469 68.429688 C 86.550781 68.691406 86.398438 68.972656 86.273438 69.265625 C 86.148438 69.558594 86.054688 69.859375 85.988281 70.171875 C 85.921875 70.484375 85.886719 70.800781 85.882812 71.121094 L 85.882812 71.914062 C 84.507812 72.496094 83.210938 73.222656 81.992188 74.085938 L 81.109375 73.601562 C 80.832031 73.449219 80.542969 73.324219 80.242188 73.226562 C 79.941406 73.132812 79.636719 73.0625 79.320312 73.027344 C 79.007812 72.988281 78.695312 72.980469 78.378906 73 C 78.0625 73.019531 77.753906 73.070312 77.449219 73.152344 C 77.140625 73.230469 76.847656 73.339844 76.5625 73.476562 C 76.277344 73.613281 76.007812 73.773438 75.753906 73.960938 C 75.5 74.148438 75.265625 74.359375 75.050781 74.589844 C 74.835938 74.820312 74.644531 75.070312 74.476562 75.339844 L 71.109375 80.921875 C 70.773438 81.472656 70.558594 82.066406 70.46875 82.707031 C 70.378906 83.347656 70.417969 83.976562 70.585938 84.601562 C 70.757812 85.230469 71.046875 85.804688 71.453125 86.320312 C 71.859375 86.835938 72.347656 87.253906 72.921875 87.570312 L 73.679688 87.984375 C 73.527344 89.359375 73.527344 90.730469 73.679688 92.105469 L 72.925781 92.519531 C 72.347656 92.835938 71.855469 93.25 71.445312 93.765625 C 71.039062 94.28125 70.746094 94.855469 70.570312 95.488281 Z M 79.160156 90.039062 C 79.160156 89.402344 79.207031 88.769531 79.296875 88.136719 C 79.359375 87.660156 79.351562 87.183594 79.269531 86.707031 C 79.1875 86.234375 79.035156 85.78125 78.816406 85.351562 C 78.597656 84.925781 78.320312 84.535156 77.984375 84.191406 C 77.648438 83.847656 77.265625 83.558594 76.84375 83.332031 L 76.351562 83.050781 L 78.929688 78.789062 L 79.621094 79.167969 C 80.042969 79.394531 80.488281 79.5625 80.957031 79.664062 C 81.429688 79.761719 81.902344 79.796875 82.382812 79.761719 C 82.859375 79.730469 83.328125 79.628906 83.777344 79.460938 C 84.226562 79.296875 84.644531 79.070312 85.03125 78.785156 C 86.0625 78.035156 87.167969 77.425781 88.351562 76.957031 C 88.808594 76.785156 89.230469 76.550781 89.613281 76.25 C 90 75.949219 90.332031 75.597656 90.613281 75.199219 C 90.890625 74.800781 91.105469 74.367188 91.253906 73.902344 C 91.402344 73.4375 91.480469 72.960938 91.484375 72.472656 L 91.484375 71.914062 L 96.832031 71.914062 L 96.832031 72.472656 C 96.835938 72.960938 96.914062 73.4375 97.0625 73.902344 C 97.210938 74.367188 97.425781 74.800781 97.707031 75.199219 C 97.984375 75.597656 98.316406 75.949219 98.703125 76.25 C 99.089844 76.550781 99.507812 76.785156 99.964844 76.957031 C 101.152344 77.433594 102.257812 78.046875 103.285156 78.804688 C 103.671875 79.089844 104.089844 79.316406 104.539062 79.480469 C 104.992188 79.648438 105.457031 79.75 105.933594 79.785156 C 106.414062 79.816406 106.886719 79.785156 107.355469 79.683594 C 107.828125 79.582031 108.273438 79.417969 108.695312 79.191406 L 109.390625 78.808594 L 111.964844 83.070312 L 111.480469 83.335938 C 111.054688 83.566406 110.675781 83.851562 110.335938 84.199219 C 110 84.542969 109.722656 84.929688 109.503906 85.359375 C 109.28125 85.789062 109.132812 86.242188 109.050781 86.714844 C 108.96875 87.191406 108.957031 87.667969 109.019531 88.144531 C 109.203125 89.414062 109.203125 90.683594 109.019531 91.949219 C 108.957031 92.429688 108.96875 92.90625 109.050781 93.378906 C 109.132812 93.855469 109.28125 94.308594 109.5 94.738281 C 109.71875 95.164062 110 95.554688 110.335938 95.898438 C 110.671875 96.242188 111.054688 96.53125 111.476562 96.761719 L 111.964844 97.027344 L 109.390625 101.289062 L 108.695312 100.90625 C 108.273438 100.679688 107.824219 100.515625 107.355469 100.414062 C 106.886719 100.3125 106.410156 100.28125 105.933594 100.316406 C 105.453125 100.351562 104.988281 100.449219 104.539062 100.617188 C 104.089844 100.785156 103.667969 101.011719 103.285156 101.296875 C 102.253906 102.050781 101.148438 102.664062 99.964844 103.136719 C 99.507812 103.3125 99.089844 103.546875 98.703125 103.847656 C 98.320312 104.148438 97.988281 104.496094 97.707031 104.898438 C 97.429688 105.296875 97.214844 105.730469 97.0625 106.195312 C 96.914062 106.660156 96.835938 107.132812 96.832031 107.621094 L 96.832031 108.183594 L 91.484375 108.183594 L 91.484375 107.621094 C 91.480469 107.132812 91.402344 106.660156 91.253906 106.195312 C 91.105469 105.730469 90.890625 105.296875 90.609375 104.898438 C 90.332031 104.496094 90 104.148438 89.613281 103.847656 C 89.230469 103.546875 88.808594 103.3125 88.351562 103.136719 C 87.167969 102.664062 86.058594 102.046875 85.03125 101.292969 C 84.644531 101.007812 84.226562 100.78125 83.777344 100.617188 C 83.324219 100.449219 82.859375 100.351562 82.382812 100.316406 C 81.902344 100.28125 81.429688 100.316406 80.960938 100.414062 C 80.488281 100.515625 80.042969 100.679688 79.621094 100.90625 L 78.929688 101.289062 L 76.351562 97.027344 L 76.839844 96.761719 C 77.265625 96.53125 77.644531 96.242188 77.984375 95.898438 C 78.320312 95.554688 78.597656 95.164062 78.816406 94.738281 C 79.035156 94.308594 79.1875 93.855469 79.269531 93.378906 C 79.351562 92.90625 79.359375 92.429688 79.296875 91.949219 C 79.207031 91.316406 79.160156 90.679688 79.160156 90.039062 Z M 79.160156 90.039062 " fill-opacity="1" fill-rule="nonzero"/><path fill="#fff" d="M 94.160156 99.382812 C 94.773438 99.382812 95.382812 99.324219 95.984375 99.203125 C 96.585938 99.085938 97.171875 98.90625 97.738281 98.671875 C 98.304688 98.4375 98.84375 98.152344 99.355469 97.808594 C 99.867188 97.46875 100.339844 97.082031 100.773438 96.648438 C 101.207031 96.214844 101.59375 95.742188 101.9375 95.230469 C 102.277344 94.722656 102.566406 94.183594 102.800781 93.617188 C 103.035156 93.050781 103.214844 92.464844 103.332031 91.863281 C 103.453125 91.261719 103.515625 90.652344 103.515625 90.039062 C 103.515625 89.425781 103.453125 88.816406 103.335938 88.214844 C 103.214844 87.613281 103.039062 87.027344 102.800781 86.460938 C 102.566406 85.894531 102.277344 85.355469 101.9375 84.847656 C 101.597656 84.335938 101.207031 83.863281 100.773438 83.429688 C 100.339844 82.996094 99.867188 82.609375 99.355469 82.265625 C 98.847656 81.925781 98.308594 81.636719 97.742188 81.402344 C 97.171875 81.167969 96.589844 80.992188 95.984375 80.871094 C 95.382812 80.753906 94.773438 80.691406 94.160156 80.691406 C 93.546875 80.691406 92.9375 80.753906 92.335938 80.871094 C 91.734375 80.992188 91.148438 81.167969 90.582031 81.40625 C 90.015625 81.640625 89.476562 81.925781 88.964844 82.269531 C 88.453125 82.609375 87.980469 82.996094 87.546875 83.429688 C 87.113281 83.863281 86.726562 84.335938 86.386719 84.847656 C 86.042969 85.359375 85.753906 85.898438 85.519531 86.464844 C 85.285156 87.03125 85.109375 87.617188 84.988281 88.21875 C 84.871094 88.820312 84.808594 89.425781 84.808594 90.039062 C 84.8125 90.652344 84.871094 91.261719 84.992188 91.863281 C 85.113281 92.464844 85.289062 93.046875 85.523438 93.613281 C 85.761719 94.179688 86.046875 94.71875 86.390625 95.230469 C 86.730469 95.738281 87.117188 96.210938 87.550781 96.644531 C 87.984375 97.078125 88.457031 97.464844 88.96875 97.804688 C 89.476562 98.148438 90.015625 98.433594 90.582031 98.667969 C 91.148438 98.90625 91.734375 99.082031 92.335938 99.203125 C 92.9375 99.324219 93.546875 99.382812 94.160156 99.382812 Z M 94.160156 86.300781 C 94.65625 86.300781 95.132812 86.394531 95.589844 86.585938 C 96.050781 86.773438 96.453125 87.042969 96.804688 87.394531 C 97.15625 87.746094 97.429688 88.148438 97.617188 88.609375 C 97.808594 89.066406 97.902344 89.542969 97.902344 90.039062 C 97.902344 90.535156 97.808594 91.011719 97.621094 91.46875 C 97.429688 91.929688 97.160156 92.332031 96.808594 92.683594 C 96.457031 93.035156 96.054688 93.304688 95.59375 93.496094 C 95.136719 93.683594 94.660156 93.78125 94.164062 93.78125 C 93.667969 93.78125 93.1875 93.6875 92.730469 93.496094 C 92.273438 93.304688 91.867188 93.035156 91.515625 92.683594 C 91.164062 92.335938 90.894531 91.929688 90.703125 91.472656 C 90.515625 91.015625 90.421875 90.535156 90.421875 90.039062 C 90.421875 89.546875 90.515625 89.070312 90.707031 88.609375 C 90.894531 88.152344 91.164062 87.75 91.515625 87.398438 C 91.867188 87.046875 92.269531 86.777344 92.726562 86.585938 C 93.1875 86.398438 93.664062 86.300781 94.160156 86.300781 Z M 94.160156 86.300781 " fill-opacity="1" fill-rule="nonzero"/><path fill="#fff" d="M 75.644531 124.824219 L 75.644531 139.75 C 75.644531 140.355469 75.675781 140.960938 75.734375 141.5625 C 75.792969 142.164062 75.882812 142.765625 76 143.359375 C 76.121094 143.953125 76.265625 144.539062 76.441406 145.121094 C 76.617188 145.699219 76.824219 146.269531 77.054688 146.828125 C 77.289062 147.390625 77.546875 147.9375 77.832031 148.46875 C 78.117188 149.003906 78.429688 149.523438 78.765625 150.027344 C 79.101562 150.53125 79.464844 151.019531 79.847656 151.484375 C 80.234375 151.953125 80.640625 152.402344 81.066406 152.832031 C 81.496094 153.261719 81.945312 153.667969 82.414062 154.050781 C 82.882812 154.433594 83.371094 154.796875 83.875 155.132812 C 84.378906 155.46875 84.898438 155.78125 85.433594 156.066406 C 85.964844 156.351562 86.515625 156.609375 87.074219 156.84375 C 87.632812 157.074219 88.203125 157.277344 88.785156 157.453125 C 89.363281 157.628906 89.953125 157.777344 90.546875 157.894531 C 91.140625 158.011719 91.742188 158.101562 92.34375 158.160156 C 92.949219 158.21875 93.554688 158.25 94.160156 158.25 C 94.765625 158.25 95.371094 158.21875 95.972656 158.160156 C 96.578125 158.101562 97.175781 158.011719 97.769531 157.894531 C 98.367188 157.777344 98.953125 157.628906 99.53125 157.453125 C 100.113281 157.277344 100.683594 157.074219 101.242188 156.84375 C 101.804688 156.609375 102.351562 156.351562 102.886719 156.066406 C 103.421875 155.78125 103.941406 155.46875 104.445312 155.132812 C 104.949219 154.796875 105.433594 154.433594 105.902344 154.050781 C 106.371094 153.667969 106.820312 153.261719 107.25 152.832031 C 107.679688 152.402344 108.085938 151.953125 108.46875 151.484375 C 108.855469 151.019531 109.214844 150.53125 109.550781 150.027344 C 109.890625 149.523438 110.199219 149.003906 110.484375 148.46875 C 110.773438 147.9375 111.03125 147.390625 111.261719 146.828125 C 111.496094 146.269531 111.699219 145.699219 111.875 145.121094 C 112.050781 144.539062 112.199219 143.953125 112.316406 143.359375 C 112.433594 142.765625 112.523438 142.164062 112.582031 141.5625 C 112.640625 140.960938 112.671875 140.355469 112.671875 139.75 L 112.671875 124.820312 C 114.242188 123.980469 115.746094 123.039062 117.1875 122 C 118.632812 120.957031 119.996094 119.824219 121.289062 118.597656 C 122.578125 117.375 123.777344 116.066406 124.890625 114.679688 C 126.007812 113.292969 127.023438 111.835938 127.9375 110.3125 C 128.855469 108.789062 129.667969 107.210938 130.375 105.578125 C 131.078125 103.945312 131.671875 102.273438 132.148438 100.5625 C 132.628906 98.847656 132.992188 97.113281 133.238281 95.351562 C 133.484375 93.589844 133.609375 91.820312 133.617188 90.039062 C 133.617188 88.710938 133.550781 87.382812 133.414062 86.058594 C 133.28125 84.734375 133.078125 83.417969 132.8125 82.113281 C 132.542969 80.8125 132.210938 79.523438 131.8125 78.253906 C 131.414062 76.984375 130.953125 75.738281 130.429688 74.511719 C 129.902344 73.289062 129.320312 72.09375 128.671875 70.929688 C 128.027344 69.765625 127.324219 68.636719 126.566406 67.542969 C 125.804688 66.453125 124.992188 65.398438 124.125 64.386719 C 123.257812 63.378906 122.34375 62.414062 121.378906 61.496094 C 120.414062 60.574219 119.40625 59.707031 118.355469 58.894531 C 117.300781 58.078125 116.210938 57.316406 115.082031 56.609375 C 113.953125 55.902344 112.789062 55.257812 111.59375 54.667969 C 110.402344 54.078125 109.179688 53.554688 107.929688 53.089844 C 106.683594 52.625 105.414062 52.222656 104.125 51.886719 C 102.835938 51.550781 101.535156 51.28125 100.21875 51.074219 C 98.902344 50.871094 97.578125 50.734375 96.25 50.664062 C 94.917969 50.59375 93.585938 50.589844 92.257812 50.652344 C 91.1875 50.703125 90.121094 50.800781 89.058594 50.9375 C 87.996094 51.074219 86.941406 51.253906 85.894531 51.480469 C 84.847656 51.703125 83.8125 51.96875 82.785156 52.277344 C 81.761719 52.585938 80.75 52.933594 79.75 53.324219 C 78.753906 53.714844 77.773438 54.144531 76.8125 54.613281 C 75.851562 55.085938 74.910156 55.59375 73.988281 56.140625 C 73.066406 56.6875 72.171875 57.269531 71.296875 57.890625 C 70.425781 58.511719 69.578125 59.164062 68.757812 59.855469 C 67.9375 60.542969 67.148438 61.261719 66.386719 62.015625 C 65.625 62.769531 64.898438 63.550781 64.199219 64.363281 C 63.503906 65.175781 62.839844 66.015625 62.210938 66.882812 C 61.582031 67.75 60.988281 68.640625 60.433594 69.554688 C 59.878906 70.46875 59.359375 71.40625 58.878906 72.363281 C 58.398438 73.320312 57.960938 74.292969 57.558594 75.285156 C 57.160156 76.28125 56.800781 77.289062 56.480469 78.308594 C 56.164062 79.332031 55.886719 80.363281 55.652344 81.410156 C 55.421875 82.453125 55.230469 83.503906 55.082031 84.566406 C 54.933594 85.625 54.828125 86.691406 54.765625 87.757812 C 54.707031 88.828125 54.6875 89.894531 54.714844 90.964844 C 54.738281 92.035156 54.808594 93.101562 54.921875 94.167969 C 55.035156 95.230469 55.191406 96.289062 55.390625 97.339844 C 55.589844 98.394531 55.828125 99.433594 56.113281 100.46875 C 56.398438 101.5 56.722656 102.519531 57.089844 103.523438 C 57.457031 104.527344 57.867188 105.515625 58.3125 106.488281 C 58.761719 107.460938 59.246094 108.414062 59.773438 109.347656 C 60.296875 110.28125 60.859375 111.191406 61.460938 112.078125 C 62.058594 112.964844 62.695312 113.824219 63.363281 114.660156 C 64.035156 115.496094 64.738281 116.300781 65.472656 117.078125 C 66.207031 117.855469 66.972656 118.605469 67.769531 119.320312 C 68.566406 120.035156 69.390625 120.71875 70.242188 121.367188 C 71.09375 122.015625 71.972656 122.628906 72.875 123.203125 C 73.777344 123.78125 74.699219 124.320312 75.644531 124.824219 Z M 94.160156 152.644531 C 93.503906 152.640625 92.855469 152.589844 92.210938 152.492188 C 91.566406 152.390625 90.929688 152.242188 90.308594 152.046875 C 89.683594 151.847656 89.082031 151.605469 88.496094 151.316406 C 87.910156 151.027344 87.347656 150.699219 86.8125 150.324219 C 86.277344 149.949219 85.773438 149.539062 85.296875 149.089844 C 84.824219 148.640625 84.390625 148.15625 83.988281 147.640625 C 83.589844 147.121094 83.230469 146.578125 82.914062 146.007812 C 82.597656 145.4375 82.324219 144.847656 82.097656 144.234375 L 106.21875 144.234375 C 105.992188 144.847656 105.722656 145.4375 105.402344 146.007812 C 105.085938 146.578125 104.730469 147.121094 104.328125 147.640625 C 103.929688 148.15625 103.492188 148.640625 103.019531 149.089844 C 102.546875 149.539062 102.042969 149.949219 101.507812 150.324219 C 100.96875 150.699219 100.410156 151.027344 99.824219 151.316406 C 99.238281 151.605469 98.632812 151.847656 98.011719 152.046875 C 97.386719 152.242188 96.753906 152.390625 96.105469 152.492188 C 95.460938 152.589844 94.8125 152.640625 94.160156 152.644531 Z M 107.0625 138.628906 L 81.257812 138.628906 L 81.257812 132.089844 L 107.0625 132.089844 Z M 60.449219 86.929688 C 60.546875 85.925781 60.683594 84.925781 60.867188 83.9375 C 61.050781 82.945312 61.277344 81.960938 61.546875 80.992188 C 61.820312 80.019531 62.132812 79.0625 62.488281 78.121094 C 62.84375 77.175781 63.242188 76.25 63.683594 75.34375 C 64.121094 74.433594 64.601562 73.546875 65.117188 72.683594 C 65.636719 71.816406 66.191406 70.976562 66.785156 70.164062 C 67.378906 69.347656 68.007812 68.558594 68.671875 67.800781 C 69.335938 67.039062 70.03125 66.3125 70.761719 65.613281 C 71.492188 64.917969 72.25 64.253906 73.039062 63.625 C 73.824219 62.996094 74.640625 62.402344 75.480469 61.84375 C 76.324219 61.289062 77.1875 60.769531 78.074219 60.289062 C 78.960938 59.8125 79.871094 59.371094 80.796875 58.972656 C 81.722656 58.574219 82.664062 58.21875 83.625 57.902344 C 84.582031 57.589844 85.554688 57.316406 86.535156 57.089844 C 87.519531 56.863281 88.511719 56.679688 89.511719 56.539062 C 90.507812 56.398438 91.511719 56.304688 92.519531 56.253906 C 93.082031 56.226562 93.625 56.214844 94.171875 56.214844 C 95.277344 56.214844 96.382812 56.269531 97.488281 56.378906 C 98.589844 56.488281 99.683594 56.648438 100.773438 56.867188 C 101.859375 57.082031 102.933594 57.351562 103.992188 57.671875 C 105.054688 57.996094 106.097656 58.367188 107.121094 58.792969 C 108.144531 59.214844 109.144531 59.691406 110.121094 60.210938 C 111.101562 60.734375 112.050781 61.304688 112.96875 61.917969 C 113.890625 62.535156 114.78125 63.195312 115.636719 63.894531 C 116.496094 64.597656 117.316406 65.34375 118.097656 66.125 C 118.882812 66.910156 119.625 67.730469 120.328125 68.585938 C 121.03125 69.441406 121.691406 70.332031 122.304688 71.25 C 122.921875 72.171875 123.492188 73.121094 124.011719 74.097656 C 124.535156 75.074219 125.007812 76.074219 125.433594 77.097656 C 125.855469 78.121094 126.230469 79.164062 126.550781 80.222656 C 126.871094 81.285156 127.140625 82.355469 127.359375 83.441406 C 127.574219 84.53125 127.734375 85.625 127.84375 86.726562 C 127.953125 87.828125 128.007812 88.933594 128.007812 90.039062 C 128 91.632812 127.882812 93.210938 127.652344 94.785156 C 127.425781 96.359375 127.085938 97.910156 126.640625 99.4375 C 126.191406 100.960938 125.640625 102.449219 124.984375 103.898438 C 124.332031 105.347656 123.578125 106.742188 122.726562 108.085938 C 121.875 109.429688 120.933594 110.707031 119.902344 111.917969 C 118.871094 113.128906 117.757812 114.261719 116.570312 115.316406 C 115.378906 116.371094 114.121094 117.339844 112.796875 118.21875 C 111.46875 119.097656 110.089844 119.878906 108.652344 120.566406 C 108.164062 120.796875 107.777344 121.140625 107.488281 121.59375 C 107.199219 122.050781 107.054688 122.546875 107.054688 123.085938 L 107.054688 126.472656 L 81.257812 126.472656 L 81.257812 123.097656 C 81.253906 122.554688 81.109375 122.058594 80.820312 121.605469 C 80.53125 121.148438 80.144531 120.804688 79.65625 120.574219 C 78.09375 119.839844 76.597656 118.996094 75.167969 118.035156 C 73.738281 117.070312 72.386719 116.007812 71.121094 114.839844 C 69.851562 113.667969 68.683594 112.410156 67.609375 111.0625 C 66.535156 109.714844 65.570312 108.289062 64.71875 106.792969 C 63.863281 105.296875 63.128906 103.742188 62.511719 102.132812 C 61.898438 100.523438 61.410156 98.875 61.046875 97.191406 C 60.683594 95.507812 60.453125 93.804688 60.355469 92.082031 C 60.253906 90.363281 60.285156 88.644531 60.449219 86.929688 Z M 60.449219 86.929688 " fill-opacity="1" fill-rule="nonzero"/><path fill="#fff" d="M 55.148438 55.019531 L 59.117188 51.054688 L 64.671875 56.605469 L 60.703125 60.570312 Z M 55.148438 55.019531 " fill-opacity="1" fill-rule="nonzero"/><g clip-path="url(#f98a250450)"><path fill="#fff" d="M 145.34375 11.808594 L 129.484375 7.808594 C 128.996094 7.683594 128.507812 7.695312 128.023438 7.835938 C 127.539062 7.976562 127.121094 8.226562 126.773438 8.59375 C 126.425781 8.957031 126.195312 9.386719 126.078125 9.875 C 125.960938 10.367188 125.972656 10.855469 126.121094 11.335938 L 127.753906 16.742188 C 117.285156 19.996094 105.3125 22.957031 93.667969 25.835938 C 80.25 29.152344 66.382812 32.582031 54.710938 36.488281 C 39.117188 41.667969 21.230469 49.402344 21.230469 63.265625 C 21.230469 76.074219 36.671875 83.410156 48.285156 87.8125 L 50.273438 82.566406 C 34.503906 76.589844 26.839844 70.277344 26.839844 63.265625 C 26.839844 55.460938 36.53125 48.4375 56.480469 41.796875 C 67.941406 37.96875 81.703125 34.566406 95 31.265625 C 106.699219 28.375 118.746094 25.378906 129.355469 22.101562 L 130.964844 27.425781 C 131.113281 27.910156 131.371094 28.324219 131.738281 28.667969 C 132.109375 29.011719 132.539062 29.242188 133.035156 29.351562 C 133.238281 29.398438 133.441406 29.417969 133.652344 29.417969 C 134.480469 29.417969 135.171875 29.113281 135.726562 28.5 L 146.734375 16.410156 C 146.894531 16.230469 147.035156 16.035156 147.144531 15.816406 C 147.257812 15.601562 147.339844 15.378906 147.390625 15.140625 C 147.445312 14.902344 147.46875 14.664062 147.457031 14.421875 C 147.449219 14.179688 147.410156 13.945312 147.339844 13.710938 C 147.269531 13.480469 147.167969 13.261719 147.042969 13.054688 C 146.914062 12.847656 146.761719 12.660156 146.585938 12.496094 C 146.410156 12.328125 146.214844 12.1875 146.003906 12.070312 C 145.789062 11.953125 145.566406 11.867188 145.332031 11.808594 Z M 134.914062 21.078125 L 132.914062 14.449219 L 139.4375 16.097656 Z M 134.914062 21.078125 " fill-opacity="1" fill-rule="nonzero"/></g><path stroke-linecap="butt" transform="matrix(0.734179, -0.143154, 0.143154, 0.734179, 68.156709, 33.248136)" fill="none" stroke-linejoin="miter" d="M -0.0016902 1.997422 L 16.454741 1.997874 " stroke="#fff" stroke-width="4" stroke-opacity="1" stroke-miterlimit="4"/></svg>