<svg xmlns="http://www.w3.org/2000/svg" xmlns:xlink="http://www.w3.org/1999/xlink" width="250" zoomAndPan="magnify" viewBox="0 0 187.5 187.499992" height="250" preserveAspectRatio="xMidYMid meet" version="1.0"><defs><clipPath id="20c04d6ca2"><path d="M 9.546875 9.546875 L 158 9.546875 L 158 131 L 9.546875 131 Z M 9.546875 9.546875 " clip-rule="nonzero"/></clipPath><clipPath id="8c9f776b1a"><path d="M 20 48 L 177.101562 48 L 177.101562 177.101562 L 20 177.101562 Z M 20 48 " clip-rule="nonzero"/></clipPath></defs><path stroke-linecap="butt" transform="matrix(0.734179, -0.143154, 0.143154, 0.734179, 63.402435, 50.152489)" fill="none" stroke-linejoin="miter" d="M -0.00169375 2.000006 L 16.454737 2.000458 " stroke="#000000" stroke-width="4" stroke-opacity="1" stroke-miterlimit="4"/><path fill="#f6f6f6" d="M 119.816406 83.351562 L 118.609375 83.351562 C 118.609375 80.148438 117.980469 77.039062 116.742188 74.109375 C 115.546875 71.28125 113.835938 68.742188 111.65625 66.566406 C 109.476562 64.386719 106.9375 62.675781 104.109375 61.476562 C 101.179688 60.238281 98.070312 59.613281 94.867188 59.613281 C 91.664062 59.613281 88.554688 60.238281 85.625 61.476562 C 82.796875 62.675781 80.261719 64.386719 78.082031 66.566406 C 75.902344 68.742188 74.191406 71.28125 72.996094 74.109375 C 71.753906 77.039062 71.128906 80.148438 71.128906 83.351562 L 69.917969 83.351562 C 65.953125 83.351562 62.734375 86.566406 62.734375 90.535156 L 62.734375 122.238281 C 62.734375 126.203125 65.953125 129.417969 69.917969 129.417969 L 119.816406 129.417969 C 123.785156 129.417969 127 126.203125 127 122.238281 L 127 90.535156 C 127 86.566406 123.785156 83.351562 119.816406 83.351562 Z M 97.480469 106.664062 L 97.480469 111.792969 C 97.480469 113.234375 96.308594 114.40625 94.867188 114.40625 C 93.425781 114.40625 92.257812 113.234375 92.257812 111.792969 L 92.257812 106.664062 C 89.867188 105.648438 88.191406 103.28125 88.191406 100.519531 C 88.191406 99.898438 88.277344 99.296875 88.433594 98.726562 C 89.21875 95.910156 91.800781 93.84375 94.867188 93.84375 C 97.933594 93.84375 100.515625 95.910156 101.300781 98.726562 C 101.460938 99.296875 101.542969 99.898438 101.542969 100.519531 C 101.542969 103.28125 99.871094 105.648438 97.480469 106.664062 Z M 78.203125 83.351562 C 78.203125 74.164062 85.679688 66.6875 94.867188 66.6875 C 104.054688 66.6875 111.53125 74.164062 111.53125 83.351562 Z M 78.203125 83.351562 " fill-opacity="1" fill-rule="nonzero"/><path fill="#f6f6f6" d="M 146.570312 51.363281 C 137.3125 51.390625 128.101562 50.117188 119.207031 47.570312 C 110.648438 45.121094 102.460938 41.515625 94.867188 36.859375 L 93.566406 36.0625 L 92.285156 36.890625 L 92.140625 36.984375 C 83.921875 42.242188 74.980469 46.132812 65.5625 48.550781 C 57.175781 50.703125 48.523438 51.648438 39.84375 51.363281 L 37.65625 51.292969 L 37.363281 53.464844 C 36.449219 60.21875 36.03125 66.9375 36.113281 73.433594 C 36.234375 83.195312 37.480469 92.542969 39.804688 101.222656 C 42.574219 111.546875 46.902344 121 52.671875 129.320312 C 55.953125 134.050781 59.753906 138.492188 63.972656 142.515625 C 68.503906 146.84375 73.636719 150.804688 79.222656 154.289062 C 83.324219 156.847656 87.765625 159.210938 92.421875 161.3125 C 92.527344 161.359375 92.628906 161.40625 92.734375 161.453125 L 93.628906 161.851562 L 94.550781 161.519531 C 99.417969 159.75 104.050781 157.671875 108.3125 155.335938 C 114.230469 152.089844 119.625 148.253906 124.347656 143.929688 C 128.714844 139.929688 132.609375 135.414062 135.921875 130.515625 C 141.679688 122.003906 145.835938 112.113281 148.277344 101.125 C 151.507812 86.582031 151.75 70.078125 148.96875 53.390625 L 148.632812 51.359375 Z M 143.542969 100.070312 C 143.507812 100.230469 143.472656 100.386719 143.4375 100.546875 L 129.203125 100.546875 L 129.203125 123.578125 C 129.203125 127.816406 125.765625 131.253906 121.523438 131.253906 L 94.695312 131.253906 L 94.695312 156.285156 C 94.40625 156.398438 94.109375 156.511719 93.816406 156.621094 C 89.574219 154.679688 85.53125 152.511719 81.792969 150.175781 C 62.964844 138.425781 50.46875 121.730469 44.648438 100.546875 L 60.503906 100.546875 L 60.503906 89.6875 C 60.535156 89 60.730469 86.464844 62.753906 84.257812 C 64.714844 82.117188 67.125 81.667969 67.824219 81.5625 C 68.375 81.53125 68.929688 81.5 69.480469 81.46875 C 69.523438 79.304688 69.835938 77.492188 70.160156 76.132812 C 70.386719 75.167969 70.785156 73.757812 71.472656 72.128906 C 72.75 69.109375 74.578125 66.394531 76.910156 64.066406 C 79.238281 61.734375 81.953125 59.90625 84.976562 58.628906 C 88.066406 57.320312 91.34375 56.648438 94.722656 56.632812 L 94.722656 42.417969 C 102.007812 46.621094 109.785156 49.917969 117.871094 52.230469 C 126.539062 54.714844 135.492188 56.046875 144.507812 56.199219 C 145.53125 62.957031 146.042969 69.664062 146.042969 76.195312 C 146.042969 84.53125 145.207031 92.578125 143.542969 100.070312 Z M 143.542969 100.070312 " fill-opacity="1" fill-rule="nonzero"/><path fill="#f6f6f6" d="M 81.429688 81.71875 L 94.722656 81.71875 L 94.722656 69.761719 C 87.382812 69.808594 81.429688 75.152344 81.429688 81.71875 Z M 81.429688 81.71875 " fill-opacity="1" fill-rule="nonzero"/><g clip-path="url(#20c04d6ca2)"><path fill="#f6f6f6" d="M 23.167969 125.878906 C 18.613281 116.023438 16.066406 105.050781 16.066406 93.496094 C 16.066406 50.800781 50.800781 16.066406 93.496094 16.066406 C 103.191406 16.066406 111.664062 18.164062 114.304688 18.90625 C 122.246094 21.140625 129.003906 24.449219 134.613281 28.015625 C 133.902344 29.550781 133.507812 31.261719 133.507812 33.066406 C 133.507812 39.726562 138.910156 45.128906 145.570312 45.128906 C 148.039062 45.128906 150.335938 44.386719 152.246094 43.113281 C 154.113281 41.871094 155.609375 40.125 156.550781 38.070312 C 157.246094 36.542969 157.632812 34.851562 157.632812 33.0625 C 157.632812 26.402344 152.234375 21 145.570312 21 C 143.148438 21 140.894531 21.714844 139.007812 22.941406 C 134.933594 20.3125 130.625 18.027344 126.175781 16.144531 C 115.824219 11.765625 104.828125 9.546875 93.496094 9.546875 C 82.164062 9.546875 71.171875 11.765625 60.816406 16.144531 C 55.84375 18.25 51.042969 20.851562 46.554688 23.886719 C 42.113281 26.886719 37.933594 30.335938 34.132812 34.132812 C 30.335938 37.933594 26.886719 42.113281 23.886719 46.554688 C 20.851562 51.042969 18.25 55.84375 16.144531 60.816406 C 11.765625 71.171875 9.546875 82.164062 9.546875 93.496094 C 9.546875 104.828125 11.765625 115.824219 16.144531 126.175781 C 16.519531 127.066406 16.914062 127.949219 17.320312 128.828125 C 18.289062 129.945312 19.832031 130.339844 21.132812 129.832031 C 22.632812 129.242188 23.53125 127.566406 23.167969 125.878906 Z M 23.167969 125.878906 " fill-opacity="1" fill-rule="nonzero"/></g><g clip-path="url(#8c9f776b1a)"><path fill="#f6f6f6" d="M 170.851562 60.816406 C 169.261719 57.058594 167.382812 53.402344 165.253906 49.902344 C 164.089844 48.421875 161.980469 48.167969 160.601562 49.21875 C 159.371094 50.15625 158.96875 51.9375 159.722656 53.417969 C 162.472656 57.9375 165.816406 64.484375 168.136719 72.867188 C 168.136719 72.867188 170.929688 83.054688 170.929688 93.496094 C 170.929688 136.191406 136.191406 170.925781 93.496094 170.925781 C 83.890625 170.925781 76.132812 169.066406 72.675781 168.085938 C 60.445312 164.601562 50.820312 158.472656 43.609375 152.308594 C 44.183594 150.902344 44.5 149.367188 44.5 147.753906 C 44.5 141.09375 39.097656 135.691406 32.433594 135.691406 C 31.21875 135.691406 30.046875 135.871094 28.941406 136.207031 C 23.980469 137.707031 20.371094 142.308594 20.371094 147.753906 C 20.371094 154.417969 25.773438 159.820312 32.433594 159.820312 C 35.003906 159.820312 37.386719 159.015625 39.34375 157.644531 C 41.648438 159.597656 44.0625 161.421875 46.558594 163.109375 C 51.046875 166.140625 55.84375 168.746094 60.820312 170.851562 C 71.171875 175.226562 82.164062 177.449219 93.496094 177.449219 C 104.828125 177.449219 115.824219 175.226562 126.175781 170.851562 C 131.152344 168.746094 135.949219 166.140625 140.4375 163.109375 C 144.882812 160.105469 149.0625 156.65625 152.859375 152.859375 C 156.660156 149.0625 160.105469 144.882812 163.109375 140.4375 C 166.140625 135.949219 168.746094 131.152344 170.851562 126.175781 C 175.230469 115.824219 177.449219 104.828125 177.449219 93.496094 C 177.449219 82.164062 175.226562 71.171875 170.851562 60.816406 Z M 170.851562 60.816406 " fill-opacity="1" fill-rule="nonzero"/></g></svg>